<svg width="60" height="58" viewBox="0 0 60 58" fill="none" xmlns="http://www.w3.org/2000/svg">
<path d="M30 0C24.0666 0 18.2664 1.70082 13.3329 4.88738C8.39943 8.07394 4.55426 12.6031 2.28363 17.9022C0.0129986 23.2012 -0.581101 29.0322 0.576455 34.6576C1.73401 40.2831 4.59123 45.4504 8.78681 49.5061C12.9824 53.5618 18.3279 56.3238 24.1473 57.4428C29.9667 58.5617 35.9987 57.9874 41.4805 55.7925C46.9623 53.5976 51.6476 49.8806 54.9441 45.1115C58.2405 40.3425 60 34.7357 60 29C59.9914 21.3113 56.8279 13.9398 51.2037 8.50309C45.5795 3.06633 37.9539 0.00831595 30 0ZM30 53.1667C25.0555 53.1667 20.222 51.7493 16.1108 49.0938C11.9995 46.4384 8.79521 42.6641 6.90302 38.2482C5.01083 33.8323 4.51575 28.9732 5.48038 24.2853C6.44501 19.5974 8.82603 15.2914 12.3223 11.9116C15.8187 8.53182 20.2732 6.23016 25.1228 5.29769C29.9723 4.36521 34.9989 4.84379 39.5671 6.67291C44.1352 8.50203 48.0397 11.5995 50.7867 15.5737C53.5338 19.5479 55 24.2203 55 29C54.9927 35.4072 52.3565 41.55 47.6696 46.0806C42.9828 50.6112 36.6282 53.1596 30 53.1667ZM42.5 29C42.5 29.6409 42.2366 30.2556 41.7678 30.7088C41.2989 31.162 40.663 31.4167 40 31.4167H32.5V38.6667C32.5 39.3076 32.2366 39.9223 31.7678 40.3755C31.2989 40.8287 30.663 41.0833 30 41.0833C29.337 41.0833 28.7011 40.8287 28.2322 40.3755C27.7634 39.9223 27.5 39.3076 27.5 38.6667V31.4167H20C19.337 31.4167 18.7011 31.162 18.2322 30.7088C17.7634 30.2556 17.5 29.6409 17.5 29C17.5 28.3591 17.7634 27.7444 18.2322 27.2912C18.7011 26.8379 19.337 26.5833 20 26.5833H27.5V19.3333C27.5 18.6924 27.7634 18.0777 28.2322 17.6245C28.7011 17.1713 29.337 16.9167 30 16.9167C30.663 16.9167 31.2989 17.1713 31.7678 17.6245C32.2366 18.0777 32.5 18.6924 32.5 19.3333V26.5833H40C40.663 26.5833 41.2989 26.8379 41.7678 27.2912C42.2366 27.7444 42.5 28.3591 42.5 29Z" fill="url(#paint0_linear_434_211)"/>
<defs>
<linearGradient id="paint0_linear_434_211" x1="30" y1="0" x2="30" y2="58" gradientUnits="userSpaceOnUse">
<stop stop-color="#FFAE74"/>
<stop offset="1" stop-color="#FF6C03"/>
</linearGradient>
</defs>
</svg>
