<svg width="25" height="25" viewBox="0 0 25 25" fill="none" xmlns="http://www.w3.org/2000/svg">
<g clip-path="url(#clip0_567_4866)">
<path d="M21.3278 4.82762H18.2011C17.967 3.68931 17.3476 2.6665 16.4473 1.9316C15.5471 1.19669 14.421 0.794619 13.2589 0.793152L11.2416 0.793152C10.0795 0.794619 8.95339 1.19669 8.05312 1.9316C7.15286 2.6665 6.53349 3.68931 6.29939 4.82762H3.17268C2.90518 4.82762 2.64863 4.93388 2.45948 5.12304C2.27033 5.31219 2.16406 5.56873 2.16406 5.83624C2.16406 6.10374 2.27033 6.36028 2.45948 6.54944C2.64863 6.73859 2.90518 6.84485 3.17268 6.84485H4.1813V19.9569C4.1829 21.2939 4.71474 22.5757 5.66015 23.5211C6.60557 24.4665 7.88736 24.9984 9.22438 25H15.2761C16.6131 24.9984 17.8949 24.4665 18.8403 23.5211C19.7857 22.5757 20.3176 21.2939 20.3192 19.9569V6.84485H21.3278C21.5953 6.84485 21.8518 6.73859 22.041 6.54944C22.2301 6.36028 22.3364 6.10374 22.3364 5.83624C22.3364 5.56873 22.2301 5.31219 22.041 5.12304C21.8518 4.93388 21.5953 4.82762 21.3278 4.82762ZM11.2416 2.81039H13.2589C13.8845 2.81115 14.4945 3.00543 15.0054 3.36658C15.5162 3.72773 15.9029 4.23807 16.1122 4.82762H8.38824C8.59761 4.23807 8.98423 3.72773 9.49508 3.36658C10.0059 3.00543 10.616 2.81115 11.2416 2.81039ZM18.3019 19.9569C18.3019 20.7594 17.9831 21.529 17.4157 22.0965C16.8482 22.6639 16.0786 22.9827 15.2761 22.9827H9.22438C8.42188 22.9827 7.65224 22.6639 7.08478 22.0965C6.51732 21.529 6.19853 20.7594 6.19853 19.9569V6.84485H18.3019V19.9569Z" fill="black"/>
<path d="M10.2332 18.9483C10.5007 18.9483 10.7573 18.842 10.9464 18.6529C11.1356 18.4637 11.2418 18.2072 11.2418 17.9397V11.888C11.2418 11.6204 11.1356 11.3639 10.9464 11.1748C10.7573 10.9856 10.5007 10.8793 10.2332 10.8793C9.96572 10.8793 9.70918 10.9856 9.52003 11.1748C9.33087 11.3639 9.22461 11.6204 9.22461 11.888V17.9397C9.22461 18.2072 9.33087 18.4637 9.52003 18.6529C9.70918 18.842 9.96572 18.9483 10.2332 18.9483Z" fill="black"/>
<path d="M14.2664 18.9483C14.5339 18.9483 14.7905 18.842 14.9796 18.6529C15.1688 18.4637 15.275 18.2072 15.275 17.9397V11.888C15.275 11.6204 15.1688 11.3639 14.9796 11.1748C14.7905 10.9856 14.5339 10.8793 14.2664 10.8793C13.9989 10.8793 13.7424 10.9856 13.5532 11.1748C13.3641 11.3639 13.2578 11.6204 13.2578 11.888V17.9397C13.2578 18.2072 13.3641 18.4637 13.5532 18.6529C13.7424 18.842 13.9989 18.9483 14.2664 18.9483Z" fill="black"/>
</g>
<defs>
<clipPath id="clip0_567_4866">
<rect width="24.2068" height="24.2068" fill="white" transform="translate(0.146484 0.793152)"/>
</clipPath>
</defs>
</svg>
