<svg width="25" height="25" viewBox="0 0 25 25" fill="none" xmlns="http://www.w3.org/2000/svg">
<g clip-path="url(#clip0_567_4857)">
<path d="M0.13865 11.3063C0.289718 8.95438 1.12642 6.69805 2.54561 4.81547C3.96479 2.93288 5.90442 1.50633 8.12536 0.711686C10.3463 -0.082956 12.7515 -0.210953 15.0444 0.343475C17.3373 0.897903 19.4176 2.11052 21.029 3.83183C22.6404 5.55314 23.7123 7.70789 24.1127 10.0304C24.513 12.353 24.2243 14.7418 23.2821 16.9024C22.3398 19.063 20.7853 20.9009 18.8101 22.1896C16.8349 23.4782 14.5254 24.1613 12.1663 24.1545L5.1397 24.138C3.80574 24.1335 2.52805 23.6005 1.58701 22.656C0.645981 21.7115 0.118489 20.4325 0.120295 19.0999L0.13865 11.3063ZM2.13279 19.1047C2.13091 19.9045 2.44715 20.6723 3.01194 21.2392C3.57673 21.8061 4.34381 22.1256 5.14443 22.1275L12.1711 22.144C13.5909 22.1467 14.9954 21.8505 16.293 21.2745C17.5906 20.6985 18.752 19.8558 19.7017 18.8012C20.6559 17.7472 21.3735 16.5016 21.8064 15.1479C22.2393 13.7942 22.3775 12.3636 22.2116 10.9521C21.9498 8.72585 20.9537 6.64993 19.3804 5.05164C17.8071 3.45335 15.7461 2.42359 13.5223 2.12471C13.0885 2.06936 12.6517 2.0408 12.2144 2.0392C9.86936 2.02729 7.59499 2.84046 5.79008 4.33614C4.73597 5.20716 3.86988 6.28296 3.24433 7.49831C2.61878 8.71367 2.2468 10.0433 2.15092 11.4065L2.13279 19.1047Z" fill="black"/>
<path d="M16.2429 9.09435L12.2179 9.08487C11.9511 9.08424 11.6954 8.97763 11.5071 8.78847C11.3188 8.59932 11.2134 8.34313 11.2141 8.07626C11.2147 7.80938 11.3213 7.55369 11.5105 7.36543C11.6996 7.17716 11.9558 7.07175 12.2227 7.07238L16.2477 7.08186C16.5145 7.08249 16.7702 7.18911 16.9585 7.37826C17.1468 7.56741 17.2522 7.8236 17.2515 8.09048C17.2509 8.35735 17.1443 8.61304 16.9551 8.80131C16.766 8.98957 16.5098 9.09498 16.2429 9.09435Z" fill="black"/>
<path d="M8.18792 11.0879L16.2379 11.1068C16.5048 11.1075 16.7605 11.2141 16.9487 11.4032C17.137 11.5924 17.2424 11.8486 17.2418 12.1154C17.2411 12.3823 17.1345 12.638 16.9454 12.8263C16.7562 13.0145 16.5 13.1199 16.2332 13.1193L8.18318 13.1004C7.9163 13.0997 7.66061 12.9931 7.47235 12.804C7.28408 12.6148 7.17867 12.3586 7.1793 12.0917C7.17993 11.8249 7.28655 11.5692 7.4757 11.3809C7.66485 11.1926 7.92104 11.0872 8.18792 11.0879Z" fill="black"/>
<path d="M8.17815 15.1129L16.2281 15.1318C16.495 15.1325 16.7507 15.2391 16.939 15.4282C17.1272 15.6174 17.2326 15.8736 17.232 16.1405C17.2314 16.4073 17.1248 16.663 16.9356 16.8513C16.7465 17.0396 16.4903 17.145 16.2234 17.1443L8.17341 17.1254C7.90654 17.1248 7.65084 17.0181 7.46258 16.829C7.27432 16.6398 7.16891 16.3836 7.16953 16.1168C7.17016 15.8499 7.27678 15.5942 7.46593 15.4059C7.65508 15.2177 7.91128 15.1123 8.17815 15.1129Z" fill="black"/>
</g>
<defs>
<clipPath id="clip0_567_4857">
<rect width="24.15" height="24.15" fill="white" transform="matrix(-0.999997 -0.00235513 -0.00235513 0.999997 24.3145 0.0570679)"/>
</clipPath>
</defs>
</svg>
