<svg width="30" height="30" viewBox="0 0 30 30" fill="none" xmlns="http://www.w3.org/2000/svg">
<g clip-path="url(#clip0_583_904)">
<path d="M6.25 23.75H11.7675L28.8212 6.6962C29.5517 5.96392 29.962 4.9718 29.962 3.93745C29.962 2.90311 29.5517 1.91099 28.8212 1.1787C28.0783 0.468571 27.0902 0.0722656 26.0625 0.0722656C25.0348 0.0722656 24.0467 0.468571 23.3037 1.1787L6.25 18.2325V23.75ZM8.75 19.2675L25.0712 2.9462C25.3382 2.69115 25.6933 2.54882 26.0625 2.54882C26.4317 2.54882 26.7868 2.69115 27.0537 2.9462C27.3162 3.20935 27.4636 3.56582 27.4636 3.93745C27.4636 4.30909 27.3162 4.66556 27.0537 4.9287L10.7325 21.25H8.75V19.2675Z" fill="black"/>
<path d="M29.5263 9.5275L27.5 11.5538V20H20V27.5H2.5V3.75C2.5 3.41848 2.6317 3.10054 2.86612 2.86612C3.10054 2.6317 3.41848 2.5 3.75 2.5H18.4475L20.4737 0.47375C20.6563 0.30453 20.8487 0.146333 21.05 0L3.75 0C2.75544 0 1.80161 0.395088 1.09835 1.09835C0.395088 1.80161 0 2.75544 0 3.75L0 30H23.0175L30 23.0175V8.95125C29.8534 9.15233 29.6952 9.34474 29.5263 9.5275ZM22.5 26.9825V22.5H26.9825L22.5 26.9825Z" fill="black"/>
</g>
<defs>
<clipPath id="clip0_583_904">
<rect width="30" height="30" fill="white"/>
</clipPath>
</defs>
</svg>
