<svg width="36" height="36" viewBox="0 0 36 36" fill="none" xmlns="http://www.w3.org/2000/svg">
<path d="M34.9002 13.7553C33.5466 11.3356 31.8391 9.17427 29.8456 7.35699L34.0441 2.77392C34.3172 2.46522 34.4683 2.05175 34.4649 1.62259C34.4615 1.19342 34.3038 0.782889 34.0258 0.479411C33.7478 0.175933 33.3717 0.00379122 32.9786 6.18757e-05C32.5854 -0.00366746 32.2066 0.161314 31.9238 0.459472L27.358 5.45011C24.5277 3.61495 21.2919 2.65847 18 2.6839C8.71694 2.6839 3.4269 9.6207 1.09976 13.7553C0.380819 15.0246 0 16.4875 0 17.9799C0 19.4723 0.380819 20.9351 1.09976 22.2045C2.45339 24.6241 4.16086 26.7855 6.15439 28.6028L1.95594 33.1859C1.81273 33.3368 1.6985 33.5175 1.61992 33.7172C1.54133 33.9169 1.49997 34.1316 1.49824 34.349C1.49651 34.5663 1.53445 34.7818 1.60984 34.983C1.68523 35.1842 1.79657 35.3669 1.93736 35.5206C2.07815 35.6743 2.24556 35.7958 2.42984 35.8781C2.61411 35.9604 2.81156 36.0018 3.01066 35.9999C3.20975 35.9981 3.40651 35.9529 3.58945 35.8671C3.77238 35.7813 3.93784 35.6566 4.07616 35.5003L8.65246 30.5048C11.4793 32.3396 14.7112 33.2977 18 33.2759C27.2831 33.2759 32.5731 26.3391 34.9002 22.2045C35.6192 20.9351 36 19.4723 36 17.9799C36 16.4875 35.6192 15.0246 34.9002 13.7553ZM3.65481 20.4908C3.22768 19.7363 3.00143 18.8668 3.00143 17.9799C3.00143 17.0929 3.22768 16.2235 3.65481 15.469C5.65507 11.9237 10.1759 5.95752 18 5.95752C20.4895 5.94229 22.944 6.59724 25.1464 7.8644L22.128 11.1593C20.6884 10.116 18.9625 9.64852 17.2431 9.83618C15.5238 10.0238 13.9168 10.8551 12.695 12.1889C11.4731 13.5226 10.7116 15.2768 10.5397 17.1537C10.3678 19.0306 10.7961 20.9146 11.7518 22.486L8.2881 26.2671C6.45143 24.6462 4.88412 22.6922 3.65481 20.4908ZM22.4983 17.9799C22.4983 19.2822 22.0244 20.5312 21.1808 21.4521C20.3372 22.373 19.193 22.8903 18 22.8903C17.332 22.8875 16.6733 22.7196 16.0732 22.3993L22.0485 15.8766C22.342 16.5316 22.4957 17.2507 22.4983 17.9799ZM13.5017 17.9799C13.5017 16.6776 13.9756 15.4286 14.8192 14.5077C15.6628 13.5868 16.807 13.0695 18 13.0695C18.668 13.0723 19.3267 13.2402 19.9268 13.5605L13.9515 20.0832C13.658 19.4281 13.5043 18.7091 13.5017 17.9799ZM32.3452 20.4908C30.3449 24.0361 25.8241 30.0023 18 30.0023C15.5105 30.0175 13.056 29.3625 10.8536 28.0954L13.872 24.8005C15.3116 25.8438 17.0375 26.3113 18.7569 26.1236C20.4762 25.9359 22.0832 25.1047 23.305 23.7709C24.5269 22.4371 25.2884 20.683 25.4603 18.8061C25.6322 16.9292 25.2039 15.0452 24.2482 13.4737L27.7119 9.69272C29.5486 11.3136 31.1159 13.2676 32.3452 15.469C32.7723 16.2235 32.9986 17.0929 32.9986 17.9799C32.9986 18.8668 32.7723 19.7363 32.3452 20.4908Z" fill="black"/>
</svg>
