<svg width="25" height="26" viewBox="0 0 25 26" fill="none" xmlns="http://www.w3.org/2000/svg">
<g clip-path="url(#clip0_567_4862)">
<path fill-rule="evenodd" clip-rule="evenodd" d="M21.3665 4.48967C19.0902 2.2223 16.064 0.972627 12.8401 0.971619C6.19681 0.971619 0.789935 6.35158 0.786894 12.9661C0.785881 15.0802 1.34126 17.1438 2.39629 18.9633L0.685547 25.1784L7.07448 23.5102C8.83488 24.4663 10.8172 24.9696 12.834 24.9706H12.8391C19.4814 24.9706 24.8893 19.5897 24.8924 12.9752C24.8944 9.77079 23.6417 6.75604 21.3665 4.48967ZM12.8401 22.9443H12.8361C11.0382 22.9443 9.27574 22.4632 7.73729 21.5545L7.37143 21.3386L3.58003 22.3281L4.59249 18.6486L4.35432 18.2714C3.35098 16.6839 2.82195 14.8492 2.82296 12.9661C2.82499 7.46913 7.31974 2.99692 12.8452 2.99692C15.5208 2.99692 18.0362 4.0358 19.9273 5.91989C21.8185 7.805 22.8593 10.3094 22.8583 12.9732C22.8553 18.4721 18.3615 22.9443 12.8401 22.9443ZM18.3352 15.4775C18.0342 15.3273 16.5535 14.6021 16.2768 14.5022C16.0012 14.4024 15.8005 14.3519 15.5988 14.6515C15.3971 14.951 14.8215 15.6268 14.6451 15.8275C14.4698 16.0272 14.2934 16.0525 13.9924 15.9022C13.6914 15.7519 12.7205 15.4362 11.5702 14.4145C10.6754 13.6197 10.0703 12.6383 9.89498 12.3377C9.71965 12.0372 9.87673 11.8758 10.0267 11.7265C10.1625 11.5924 10.3277 11.3765 10.4787 11.201C10.6308 11.0275 10.6804 10.9025 10.7818 10.7017C10.8821 10.502 10.8324 10.3265 10.7564 10.1763C10.6804 10.027 10.0784 8.55137 9.82809 7.95125C9.58384 7.36625 9.33554 7.44593 9.15007 7.43685C8.97474 7.42778 8.77408 7.42677 8.57239 7.42677C8.37173 7.42677 8.04539 7.5014 7.76972 7.80197C7.49406 8.10254 6.71571 8.82774 6.71571 10.3023C6.71571 11.7779 7.79506 13.2031 7.94505 13.4028C8.09505 13.6025 10.0683 16.6304 13.0894 17.9285C13.808 18.2371 14.3695 18.4217 14.8063 18.5599C15.5279 18.7878 16.1846 18.7556 16.7035 18.6789C17.2822 18.5932 18.4852 17.9537 18.7365 17.2537C18.9879 16.5537 18.9879 15.9526 18.9118 15.8285C18.8368 15.7025 18.6362 15.6278 18.3352 15.4775Z" fill="black"/>
</g>
<defs>
<clipPath id="clip0_567_4862">
<rect width="24.2068" height="24.2068" fill="white" transform="translate(0.626953 0.971619)"/>
</clipPath>
</defs>
</svg>
