<svg width="40" height="40" viewBox="0 0 40 40" fill="none" xmlns="http://www.w3.org/2000/svg">
<rect width="40" height="40" rx="10" fill="url(#paint0_linear_602_1593)"/>
<g clip-path="url(#clip0_602_1593)">
<path d="M20 10.162C23.204 10.162 23.584 10.174 24.849 10.232C26.157 10.292 27.504 10.59 28.457 11.543C29.419 12.505 29.708 13.839 29.768 15.151C29.826 16.416 29.838 16.796 29.838 20C29.838 23.204 29.826 23.584 29.768 24.849C29.709 26.15 29.404 27.51 28.457 28.457C27.495 29.419 26.162 29.708 24.849 29.768C23.584 29.826 23.204 29.838 20 29.838C16.796 29.838 16.416 29.826 15.151 29.768C13.86 29.709 12.482 29.397 11.543 28.457C10.586 27.5 10.292 26.153 10.232 24.849C10.174 23.584 10.162 23.204 10.162 20C10.162 16.796 10.174 16.416 10.232 15.151C10.291 13.855 10.599 12.487 11.543 11.543C12.503 10.583 13.842 10.292 15.151 10.232C16.416 10.174 16.796 10.162 20 10.162ZM20 8C16.741 8 16.332 8.014 15.052 8.072C13.197 8.157 11.355 8.673 10.014 10.014C8.668 11.36 8.157 13.198 8.072 15.052C8.014 16.332 8 16.741 8 20C8 23.259 8.014 23.668 8.072 24.948C8.157 26.801 8.675 28.648 10.014 29.986C11.359 31.331 13.2 31.843 15.052 31.928C16.332 31.986 16.741 32 20 32C23.259 32 23.668 31.986 24.948 31.928C26.802 31.843 28.646 31.326 29.986 29.986C31.333 28.639 31.843 26.802 31.928 24.948C31.986 23.668 32 23.259 32 20C32 16.741 31.986 16.332 31.928 15.052C31.843 13.197 31.326 11.354 29.986 10.014C28.643 8.671 26.797 8.156 24.948 8.072C23.668 8.014 23.259 8 20 8Z" fill="white"/>
<path d="M19.9999 13.838C16.5969 13.838 13.8379 16.597 13.8379 20C13.8379 23.403 16.5969 26.162 19.9999 26.162C23.4029 26.162 26.1619 23.403 26.1619 20C26.1619 16.597 23.4029 13.838 19.9999 13.838ZM19.9999 24C17.7909 24 15.9999 22.209 15.9999 20C15.9999 17.791 17.7909 16 19.9999 16C22.2089 16 23.9999 17.791 23.9999 20C23.9999 22.209 22.2089 24 19.9999 24Z" fill="white"/>
<path d="M26.4068 15.034C27.2021 15.034 27.8468 14.3893 27.8468 13.594C27.8468 12.7987 27.2021 12.154 26.4068 12.154C25.6115 12.154 24.9668 12.7987 24.9668 13.594C24.9668 14.3893 25.6115 15.034 26.4068 15.034Z" fill="white"/>
</g>
<defs>
<linearGradient id="paint0_linear_602_1593" x1="0" y1="20" x2="40" y2="20" gradientUnits="userSpaceOnUse">
<stop stop-color="#FFA05B"/>
<stop offset="1" stop-color="#F3599C"/>
</linearGradient>
<clipPath id="clip0_602_1593">
<rect width="24" height="24" fill="white" transform="translate(8 8)"/>
</clipPath>
</defs>
</svg>
